# xmcd
#
# Track frame offsets:
#	150
#	14480
#	30262
#	48500
#	63272
#	77429
#	92783
#	108168
#	122856
#	139600
#	153127
#
# Disc length: 2508 seconds
#
# Revision: 0
# Processed by: cddbd v1.4PL0 Copyright (c) Steve Scherf et al.
# Submitted via: EasyCDDAExtractor 4.6.9.1
#
DISCID=7c09ca0b
DTITLE=Radjoe Sewgolam - Goel Goella
DYEAR=1999
DGENRE=Pop/Funk
TTITLE0=Saija Madhoeban
TTITLE1=Goel Goella
TTITLE2=Larkayan
TTITLE3=Dola Pitjware
TTITLE4=Moor Bole
TTITLE5=Liela Laal
TTITLE6=Tera Janamdhien
TTITLE7=Natj Bhangra
TTITLE8=Aihe Baratie
TTITLE9=Kaisa Zamana
TTITLE10=Trailers Ajooma Mix 6
EXTD=
EXTT0=
EXTT1=
EXTT2=
EXTT3=
EXTT4=
EXTT5=
EXTT6=
EXTT7=
EXTT8=
EXTT9=
EXTT10=
PLAYORDER=
